REM MD5 c054218c09ae3d053e04723fbc6fcadc
FILE "NBA Fastbreak '98 (USA).bin" BINARY
  TRACK 01 MODE2/2352
    INDEX 01 00:00:00
  TRACK 02 AUDIO
    INDEX 00 13:40:19
    INDEX 01 13:42:19
  TRACK 03 AUDIO
    INDEX 00 17:08:35
    INDEX 01 17:10:35
  TRACK 04 AUDIO
    INDEX 00 20:25:62
    INDEX 01 20:27:62
  TRACK 05 AUDIO
    INDEX 00 23:40:72
    INDEX 01 23:42:72
REM LEADOUT 26:50:63
